<?xml version="1.0"?>
<!DOCTYPE svg PUBLIC "-//W3C//DTD SVG 1.1//EN" "http://www.w3.org/Graphics/SVG/1.1/DTD/svg11.dtd">
<svg xmlns="http://www.w3.org/2000/svg" xmlns:xl="http://www.w3.org/1999/xlink" version="1.1" viewBox="-9 -7 439 276" width="439pt" height="23pc"><metadata xmlns:dc="http://purl.org/dc/elements/1.1/"><dc:date>2010-05-13 02:03Z</dc:date><!-- Produced by OmniGraffle Professional 5.2.2 --></metadata><defs><filter id="Shadow" filterUnits="userSpaceOnUse"><feGaussianBlur in="SourceAlpha" result="blur" stdDeviation="3.488"/><feOffset in="blur" result="offset" dx="0" dy="4"/><feFlood flood-color="black" flood-opacity=".75" result="flood"/><feComposite in="flood" in2="offset" operator="in"/></filter></defs><g stroke="none" stroke-opacity="1" stroke-dasharray="none" fill="none" fill-opacity="1"><title>Canvas 1</title><rect fill="white" width="576" height="733"/><g><title>Layer 1</title><g><use xl:href="#id20_Graphic" filter="url(#Shadow)"/><use xl:href="#id21_Graphic" filter="url(#Shadow)"/><use xl:href="#id22_Graphic" filter="url(#Shadow)"/><use xl:href="#id23_Graphic" filter="url(#Shadow)"/><use xl:href="#id24_Graphic" filter="url(#Shadow)"/><use xl:href="#id25_Graphic" filter="url(#Shadow)"/><use xl:href="#id26_Graphic" filter="url(#Shadow)"/><use xl:href="#id30_Graphic" filter="url(#Shadow)"/><use xl:href="#id31_Graphic" filter="url(#Shadow)"/><use xl:href="#id32_Graphic" filter="url(#Shadow)"/><use xl:href="#id33_Graphic" filter="url(#Shadow)"/><use xl:href="#id34_Graphic" filter="url(#Shadow)"/><use xl:href="#id35_Graphic" filter="url(#Shadow)"/><use xl:href="#id36_Graphic" filter="url(#Shadow)"/><use xl:href="#id37_Graphic" filter="url(#Shadow)"/><use xl:href="#id38_Graphic" filter="url(#Shadow)"/><use xl:href="#id39_Graphic" filter="url(#Shadow)"/><use xl:href="#id40_Graphic" filter="url(#Shadow)"/><use xl:href="#id41_Graphic" filter="url(#Shadow)"/></g><g id="id20_Graphic"><path d="M 59.45 59 L 103.55 59 C 108.7664 59 113 67.064003 113 77 C 113 86.935997 108.7664 95 103.55 95 L 59.45 95 C 54.2336 95 50 86.935997 50 77 C 50 67.064003 54.2336 59 59.45 59" fill="white"/><path d="M 59.45 59 L 103.55 59 C 108.7664 59 113 67.064003 113 77 C 113 86.935997 108.7664 95 103.55 95 L 59.45 95 C 54.2336 95 50 86.935997 50 77 C 50 67.064003 54.2336 59 59.45 59" stroke="black" stroke-linecap="round" stroke-linejoin="round" stroke-width="1"/></g><g id="id21_Graphic"><path d="M 227.45 59 L 271.54999 59 C 276.76639 59 281 67.064003 281 77 C 281 86.935997 276.76639 95 271.54999 95 L 227.45 95 C 222.2336 95 218 86.935997 218 77 C 218 67.064003 222.2336 59 227.45 59" fill="white"/><path d="M 227.45 59 L 271.54999 59 C 276.76639 59 281 67.064003 281 77 C 281 86.935997 276.76639 95 271.54999 95 L 227.45 95 C 222.2336 95 218 86.935997 218 77 C 218 67.064003 222.2336 59 227.45 59" stroke="black" stroke-linecap="round" stroke-linejoin="round" stroke-width="1"/></g><g id="id22_Graphic"><path d="M 143.45 59 L 187.55 59 C 192.7664 59 197 67.064003 197 77 C 197 86.935997 192.7664 95 187.55 95 L 143.45 95 C 138.2336 95 134 86.935997 134 77 C 134 67.064003 138.2336 59 143.45 59" fill="white"/><path d="M 143.45 59 L 187.55 59 C 192.7664 59 197 67.064003 197 77 C 197 86.935997 192.7664 95 187.55 95 L 143.45 95 C 138.2336 95 134 86.935997 134 77 C 134 67.064003 138.2336 59 143.45 59" stroke="black" stroke-linecap="round" stroke-linejoin="round" stroke-width="1"/></g><g id="id23_Graphic"><path d="M 104.45 9 L 148.55 9 C 153.7664 9 158 17.063999 158 27 C 158 36.936 153.7664 45 148.55 45 L 104.45 45 C 99.233597 45 95 36.936 95 27 C 95 17.063999 99.233597 9 104.45 9" fill="white"/><path d="M 104.45 9 L 148.55 9 C 153.7664 9 158 17.063999 158 27 C 158 36.936 153.7664 45 148.55 45 L 104.45 45 C 99.233597 45 95 36.936 95 27 C 95 17.063999 99.233597 9 104.45 9" stroke="black" stroke-linecap="round" stroke-linejoin="round" stroke-width="1"/></g><g id="id24_Graphic"><path d="M 272.45001 9 L 316.54999 9 C 321.76639 9 326 17.063999 326 27 C 326 36.936 321.76639 45 316.54999 45 L 272.45001 45 C 267.23361 45 263 36.936 263 27 C 263 17.063999 267.23361 9 272.45001 9" fill="white"/><path d="M 272.45001 9 L 316.54999 9 C 321.76639 9 326 17.063999 326 27 C 326 36.936 321.76639 45 316.54999 45 L 272.45001 45 C 267.23361 45 263 36.936 263 27 C 263 17.063999 267.23361 9 272.45001 9" stroke="black" stroke-linecap="round" stroke-linejoin="round" stroke-width="1"/></g><g id="id25_Graphic"><path d="M 188.45 9 L 232.55 9 C 237.7664 9 242 17.063999 242 27 C 242 36.936 237.7664 45 232.55 45 L 188.45 45 C 183.2336 45 179 36.936 179 27 C 179 17.063999 183.2336 9 188.45 9" fill="white"/><path d="M 188.45 9 L 232.55 9 C 237.7664 9 242 17.063999 242 27 C 242 36.936 237.7664 45 232.55 45 L 188.45 45 C 183.2336 45 179 36.936 179 27 C 179 17.063999 183.2336 9 188.45 9" stroke="black" stroke-linecap="round" stroke-linejoin="round" stroke-width="1"/></g><g id="id26_Graphic"><path d="M 311.45001 59 L 355.54999 59 C 360.76639 59 365 67.064003 365 77 C 365 86.935997 360.76639 95 355.54999 95 L 311.45001 95 C 306.23361 95 302 86.935997 302 77 C 302 67.064003 306.23361 59 311.45001 59" fill="white"/><path d="M 311.45001 59 L 355.54999 59 C 360.76639 59 365 67.064003 365 77 C 365 86.935997 360.76639 95 355.54999 95 L 311.45001 95 C 306.23361 95 302 86.935997 302 77 C 302 67.064003 306.23361 59 311.45001 59" stroke="black" stroke-linecap="round" stroke-linejoin="round" stroke-width="1"/></g><g id="id30_Graphic"><path d="M 20.450001 109 L 64.550003 109 C 69.766403 109 74 117.064 74 127 C 74 136.936005 69.766403 145 64.550003 145 L 20.450001 145 C 15.233601 145 11 136.936005 11 127 C 11 117.064 15.233601 109 20.450001 109" fill="white"/><path d="M 20.450001 109 L 64.550003 109 C 69.766403 109 74 117.064 74 127 C 74 136.936005 69.766403 145 64.550003 145 L 20.450001 145 C 15.233601 145 11 136.936005 11 127 C 11 117.064 15.233601 109 20.450001 109" stroke="black" stroke-linecap="round" stroke-linejoin="round" stroke-width="1"/></g><g id="id31_Graphic"><path d="M 188.45 109 L 232.55 109 C 237.7664 109 242 117.064 242 127 C 242 136.936005 237.7664 145 232.55 145 L 188.45 145 C 183.2336 145 179 136.936005 179 127 C 179 117.064 183.2336 109 188.45 109" fill="white"/><path d="M 188.45 109 L 232.55 109 C 237.7664 109 242 117.064 242 127 C 242 136.936005 237.7664 145 232.55 145 L 188.45 145 C 183.2336 145 179 136.936005 179 127 C 179 117.064 183.2336 109 188.45 109" stroke="black" stroke-linecap="round" stroke-linejoin="round" stroke-width="1"/></g><g id="id32_Graphic"><path d="M 104.45 109 L 148.55 109 C 153.7664 109 158 117.064 158 127 C 158 136.936005 153.7664 145 148.55 145 L 104.45 145 C 99.233597 145 95 136.936005 95 127 C 95 117.064 99.233597 109 104.45 109" fill="white"/><path d="M 104.45 109 L 148.55 109 C 153.7664 109 158 117.064 158 127 C 158 136.936005 153.7664 145 148.55 145 L 104.45 145 C 99.233597 145 95 136.936005 95 127 C 95 117.064 99.233597 109 104.45 109" stroke="black" stroke-linecap="round" stroke-linejoin="round" stroke-width="1"/></g><g id="id33_Graphic"><path d="M 59.45 159 L 103.55 159 C 108.7664 159 113 167.064 113 177 C 113 186.936 108.7664 195 103.55 195 L 59.45 195 C 54.2336 195 50 186.936 50 177 C 50 167.064 54.2336 159 59.45 159" fill="white"/><path d="M 59.45 159 L 103.55 159 C 108.7664 159 113 167.064 113 177 C 113 186.936 108.7664 195 103.55 195 L 59.45 195 C 54.2336 195 50 186.936 50 177 C 50 167.064 54.2336 159 59.45 159" stroke="black" stroke-linecap="round" stroke-linejoin="round" stroke-width="1"/></g><g id="id34_Graphic"><path d="M 227.45 159 L 271.54999 159 C 276.76639 159 281 167.064 281 177 C 281 186.936 276.76639 195 271.54999 195 L 227.45 195 C 222.2336 195 218 186.936 218 177 C 218 167.064 222.2336 159 227.45 159" fill="white"/><path d="M 227.45 159 L 271.54999 159 C 276.76639 159 281 167.064 281 177 C 281 186.936 276.76639 195 271.54999 195 L 227.45 195 C 222.2336 195 218 186.936 218 177 C 218 167.064 222.2336 159 227.45 159" stroke="black" stroke-linecap="round" stroke-linejoin="round" stroke-width="1"/></g><g id="id35_Graphic"><path d="M 143.45 159 L 187.55 159 C 192.7664 159 197 167.064 197 177 C 197 186.936 192.7664 195 187.55 195 L 143.45 195 C 138.2336 195 134 186.936 134 177 C 134 167.064 138.2336 159 143.45 159" fill="white"/><path d="M 143.45 159 L 187.55 159 C 192.7664 159 197 167.064 197 177 C 197 186.936 192.7664 195 187.55 195 L 143.45 195 C 138.2336 195 134 186.936 134 177 C 134 167.064 138.2336 159 143.45 159" stroke="black" stroke-linecap="round" stroke-linejoin="round" stroke-width="1"/></g><g id="id36_Graphic"><path d="M 104.45 209 L 148.55 209 C 153.7664 209 158 217.064 158 227 C 158 236.936 153.7664 245 148.55 245 L 104.45 245 C 99.233597 245 95 236.936 95 227 C 95 217.064 99.233597 209 104.45 209" fill="white"/><path d="M 104.45 209 L 148.55 209 C 153.7664 209 158 217.064 158 227 C 158 236.936 153.7664 245 148.55 245 L 104.45 245 C 99.233597 245 95 236.936 95 227 C 95 217.064 99.233597 209 104.45 209" stroke="black" stroke-linecap="round" stroke-linejoin="round" stroke-width="1"/></g><g id="id37_Graphic"><path d="M 272.45001 209 L 316.54999 209 C 321.76639 209 326 217.064 326 227 C 326 236.936 321.76639 245 316.54999 245 L 272.45001 245 C 267.23361 245 263 236.936 263 227 C 263 217.064 267.23361 209 272.45001 209" fill="white"/><path d="M 272.45001 209 L 316.54999 209 C 321.76639 209 326 217.064 326 227 C 326 236.936 321.76639 245 316.54999 245 L 272.45001 245 C 267.23361 245 263 236.936 263 227 C 263 217.064 267.23361 209 272.45001 209" stroke="black" stroke-linecap="round" stroke-linejoin="round" stroke-width="1"/></g><g id="id38_Graphic"><path d="M 188.45 209 L 232.55 209 C 237.7664 209 242 217.064 242 227 C 242 236.936 237.7664 245 232.55 245 L 188.45 245 C 183.2336 245 179 236.936 179 227 C 179 217.064 183.2336 209 188.45 209" fill="white"/><path d="M 188.45 209 L 232.55 209 C 237.7664 209 242 217.064 242 227 C 242 236.936 237.7664 245 232.55 245 L 188.45 245 C 183.2336 245 179 236.936 179 227 C 179 217.064 183.2336 209 188.45 209" stroke="black" stroke-linecap="round" stroke-linejoin="round" stroke-width="1"/></g><g id="id39_Graphic"><path d="M 311.45001 159 L 355.54999 159 C 360.76639 159 365 167.064 365 177 C 365 186.936 360.76639 195 355.54999 195 L 311.45001 195 C 306.23361 195 302 186.936 302 177 C 302 167.064 306.23361 159 311.45001 159" fill="white"/><path d="M 311.45001 159 L 355.54999 159 C 360.76639 159 365 167.064 365 177 C 365 186.936 360.76639 195 355.54999 195 L 311.45001 195 C 306.23361 195 302 186.936 302 177 C 302 167.064 306.23361 159 311.45001 159" stroke="black" stroke-linecap="round" stroke-linejoin="round" stroke-width="1"/></g><g id="id40_Graphic"><path d="M 356.45001 109 L 400.54999 109 C 405.7664 109 410 117.064 410 127 C 410 136.936005 405.7664 145 400.54999 145 L 356.45001 145 C 351.23361 145 347 136.936005 347 127 C 347 117.064 351.23361 109 356.45001 109" fill="white"/><path d="M 356.45001 109 L 400.54999 109 C 405.7664 109 410 117.064 410 127 C 410 136.936005 405.7664 145 400.54999 145 L 356.45001 145 C 351.23361 145 347 136.936005 347 127 C 347 117.064 351.23361 109 356.45001 109" stroke="black" stroke-linecap="round" stroke-linejoin="round" stroke-width="1"/></g><g id="id41_Graphic"><path d="M 272.45001 109 L 316.54999 109 C 321.76639 109 326 117.064 326 127 C 326 136.936005 321.76639 145 316.54999 145 L 272.45001 145 C 267.23361 145 263 136.936005 263 127 C 263 117.064 267.23361 109 272.45001 109" fill="white"/><path d="M 272.45001 109 L 316.54999 109 C 321.76639 109 326 117.064 326 127 C 326 136.936005 321.76639 145 316.54999 145 L 272.45001 145 C 267.23361 145 263 136.936005 263 127 C 263 117.064 267.23361 109 272.45001 109" stroke="black" stroke-linecap="round" stroke-linejoin="round" stroke-width="1"/></g></g></g></svg>
